<svg xmlns="http://www.w3.org/2000/svg" viewBox="0 0 54.48 54.78"><g id="Layer_2" data-name="Layer 2"><g id="Layer_1-2" data-name="Layer 1"><path id="Path_1" data-name="Path 1" d="M35.51,1.37A19.48,19.48,0,0,0,28.27,0a24.07,24.07,0,0,0-4.4.46L18,10.63A15.78,15.78,0,0,1,25.89,8.7a18,18,0,0,1,4.95.69ZM0,28.72C0,43.37,12.46,54.78,27,54.78A27.4,27.4,0,0,0,54.48,27.57,27.87,27.87,0,0,0,44,6l-4.58,7.92a18.11,18.11,0,0,1,6.37,13.79A18.77,18.77,0,0,1,8.25,27.5v-.06a19.64,19.64,0,0,1,.32-3.67Z"/></g></g></svg>